<svg width="16" height="17" viewBox="0 0 16 17" fill="none" xmlns="http://www.w3.org/2000/svg">
<path fill-rule="evenodd" clip-rule="evenodd" d="M8.00033 3.1665C8.36852 3.1665 8.66699 3.46498 8.66699 3.83317V7.83317H12.667C13.0352 7.83317 13.3337 8.13165 13.3337 8.49984C13.3337 8.86803 13.0352 9.16651 12.667 9.16651H8.66699V13.1665C8.66699 13.5347 8.36852 13.8332 8.00033 13.8332C7.63214 13.8332 7.33366 13.5347 7.33366 13.1665V9.16651H3.33366C2.96547 9.16651 2.66699 8.86803 2.66699 8.49984C2.66699 8.13165 2.96547 7.83317 3.33366 7.83317H7.33366V3.83317C7.33366 3.46498 7.63214 3.1665 8.00033 3.1665Z" fill="#F8F8F9"/>
</svg>
